<mxfile host="app.diagrams.net" modified="2024-06-13T08:17:21.458Z" agent="Mozilla/5.0 (X11; Ubuntu; Linux x86_64; rv:126.0) Gecko/20100101 Firefox/126.0" version="24.5.4" etag="NO5xxk-KPigol_Q45CSj" type="github">
  <diagram name="Page-1" id="IMyIjPAOqDV6TzjoMAUb">
    <mxGraphModel>
      <root>
        <mxCell id="0" />
        <mxCell id="1" parent="0" />
      </root>
    </mxGraphModel>
  </diagram>
</mxfile>
